<svg xmlns="http://www.w3.org/2000/svg" width="512" height="512" viewBox="0 0 512 512"><rect width="512" height="512" fill="#1a1a2e" rx="96"/><g stroke="#16213e" stroke-width="1" opacity=".6"><line x1="64" x2="64" y1="0" y2="512"/><line x1="128" x2="128" y1="0" y2="512"/><line x1="192" x2="192" y1="0" y2="512"/><line x1="256" x2="256" y1="0" y2="512"/><line x1="320" x2="320" y1="0" y2="512"/><line x1="384" x2="384" y1="0" y2="512"/><line x1="448" x2="448" y1="0" y2="512"/><line x1="0" x2="512" y1="64" y2="64"/><line x1="0" x2="512" y1="128" y2="128"/><line x1="0" x2="512" y1="192" y2="192"/><line x1="0" x2="512" y1="256" y2="256"/><line x1="0" x2="512" y1="320" y2="320"/><line x1="0" x2="512" y1="384" y2="384"/><line x1="0" x2="512" y1="448" y2="448"/></g><g fill="none" stroke="#00b894" stroke-linecap="round" stroke-linejoin="round" stroke-width="8"><polyline points="64 192 192 192 192 128 320 128 320 192 448 192"/><polyline points="64 320 160 320 160 384 352 384 352 320 448 320"/><polyline points="192 192 192 320"/><polyline points="320 192 320 320"/><polyline points="128 256 384 256"/></g><g fill="#00cec9" stroke="#dfe6e9" stroke-width="4"><circle cx="192" cy="192" r="16"/><circle cx="320" cy="192" r="16"/><circle cx="192" cy="320" r="16"/><circle cx="320" cy="320" r="16"/><circle cx="256" cy="256" r="20"/></g><rect width="96" height="96" x="208" y="208" fill="#0984e3" stroke="#74b9ff" stroke-width="3" rx="8"/><g fill="#dfe6e9"><rect width="12" height="8" x="196" y="220" rx="2"/><rect width="12" height="8" x="196" y="236" rx="2"/><rect width="12" height="8" x="196" y="252" rx="2"/><rect width="12" height="8" x="196" y="268" rx="2"/><rect width="12" height="8" x="304" y="220" rx="2"/><rect width="12" height="8" x="304" y="236" rx="2"/><rect width="12" height="8" x="304" y="252" rx="2"/><rect width="12" height="8" x="304" y="268" rx="2"/><rect width="8" height="12" x="220" y="196" rx="2"/><rect width="8" height="12" x="236" y="196" rx="2"/><rect width="8" height="12" x="252" y="196" rx="2"/><rect width="8" height="12" x="268" y="196" rx="2"/><rect width="8" height="12" x="220" y="304" rx="2"/><rect width="8" height="12" x="236" y="304" rx="2"/><rect width="8" height="12" x="252" y="304" rx="2"/><rect width="8" height="12" x="268" y="304" rx="2"/></g><text x="256" y="261" fill="#fff" dominant-baseline="middle" font-family="monospace" font-size="20" font-weight="bold" text-anchor="middle">MCP</text><circle cx="80" cy="80" r="12" fill="none" stroke="#636e72" stroke-width="4"/><circle cx="432" cy="80" r="12" fill="none" stroke="#636e72" stroke-width="4"/><circle cx="80" cy="432" r="12" fill="none" stroke="#636e72" stroke-width="4"/><circle cx="432" cy="432" r="12" fill="none" stroke="#636e72" stroke-width="4"/></svg>